:SAMPLES-PER-SECOND 30
:FRAME-RANGE 1-2009
:FULLY-SPECIFIED
:DEGREES
1570
root  33.5883 37.5664 36.873 -43.6465 -83.7957 48.5014
RightUpLeg  6.95498 5.11876 -5.60741
RightLeg  40.8879 13.4586 11.9413
RightFoot  -11.8328 -0.0633087 3.95593
RightToes  2.96424e-010 1.2921e-014 -6.02303e-014
Spine  -3.8405 0.0949144 -0.88188
Spine1  7.90313 1.32726 -6.17176
HEad  -3.19351 -55.4961 16.4473
LeftShoulder1  0.728713 0.703374 -21.9021
LeftArm  -2.23521 22.6737 -38.7789
LeftForeArm  56.3819 5.53537 -11.8955
LeftHand  -53.6593 -45.9454 95.9023
RightShoulder  2.05336 4.78936 18.9658
RightArm  -59.5769 41.8895 47.7114
RightForeArm  30.1958 21.9688 2.50714
RightHand  0.146673 -5.87753 -33.3002
LeftUpLeg  -32.1813 -6.6782 -3.36432
LeftLeg  17.8441 10.4889 4.1298
LeftFoot  3.45348 0.726234 -5.75307
LeftToes  -1.2485e-010 1.20979e-011 -1.0929e-011
1571
root  32.0648 37.6401 37.29 -47.6109 -83.1314 52.1023
RightUpLeg  1.00802 5.14254 -7.32071
RightLeg  53.1944 10.8622 14.8195
RightFoot  -2.21203 -0.781844 9.58204
RightToes  2.96424e-010 1.2921e-014 -6.02303e-014
Spine  -3.55677 -0.3625 -2.17088
Spine1  8.21221 0.915847 -6.60554
HEad  -3.21121 -55.8953 16.4362
LeftShoulder1  0.862483 0.197017 -21.6293
LeftArm  -3.33414 21.5958 -39.6412
LeftForeArm  56.7709 7.08322 -11.6047
LeftHand  -53.105 -45.6969 95.5189
RightShoulder  1.98113 4.46337 19.1049
RightArm  -58.6164 37.9309 46.3893
RightForeArm  28.4347 18.3979 -1.2156
RightHand  -0.182802 -4.67464 -28.9956
LeftUpLeg  -30.7228 -4.84464 -5.73788
LeftLeg  20.6378 8.16993 3.72138
LeftFoot  2.333 0.438675 -3.77671
LeftToes  -1.2485e-010 1.20979e-011 -1.0929e-011
1572
root  30.5777 37.8324 37.6855 -51.6746 -82.6866 55.5392
RightUpLeg  -4.88005 5.14416 -8.27921
RightLeg  62.4042 6.54885 12.8824
RightFoot  6.24614 -2.01704 13.2636
RightToes  2.96424e-010 1.2921e-014 -6.02303e-014
Spine  -3.08752 -0.919718 -3.69611
Spine1  8.24198 0.217475 -6.38791
HEad  -1.61047 -55.5642 14.08
LeftShoulder1  0.875894 0.159334 -21.7294
LeftArm  -3.97104 19.9541 -40.3598
LeftForeArm  56.7382 7.07614 -11.5521
LeftHand  -50.8912 -45.3622 93.1269
RightShoulder  1.95859 4.09775 20.1284
RightArm  -48.6205 34.3415 45.1489
RightForeArm  19.5949 11.7545 -5.67885
RightHand  -0.14057 -4.83139 -28.3931
LeftUpLeg  -28.1555 -4.90981 -7.29219
LeftLeg  22.0372 8.09752 3.93163
LeftFoot  0.57525 0.147895 -1.45077
LeftToes  -1.2485e-010 1.20979e-011 -1.0929e-011
1573
root  29.0854 38.0572 38.0417 -54.5697 -82.3497 57.7615
RightUpLeg  -9.72719 4.41126 -9.11582
RightLeg  68.8526 3.69441 9.7864
RightFoot  3.08283 -1.30328 10.4394
RightToes  2.96424e-010 1.2921e-014 -6.02303e-014
Spine  -2.52714 -1.51114 -5.25182
Spine1  8.02995 -0.671079 -5.73785
HEad  0.449368 -55.1147 11.332
LeftShoulder1  0.893712 0.101997 -21.7913
LeftArm  -3.88951 18.832 -41.1966
LeftForeArm  55.4178 7.10578 -11.474
LeftHand  -47.0757 -44.9252 88.6102
RightShoulder  1.84663 3.38034 21.3617
RightArm  -44.6148 30.3482 44.1381
RightForeArm  18.6634 4.58008 -6.63381
RightHand  -0.00357364 -5.38144 -28.8735
LeftUpLeg  -25.1145 -4.81895 -8.53479
LeftLeg  22.7765 8.12369 4.07516
LeftFoot  -1.81786 0.065073 -0.649734
LeftToes  -1.2485e-010 1.20979e-011 -1.0929e-011
1574
root  27.5679 38.3638 38.3654 -56.2547 -82.729 58.8904
RightUpLeg  -14.4804 3.35807 -9.06636
RightLeg  71.8204 2.05641 6.15676
RightFoot  0.71653 -0.709039 6.75159
RightToes  2.96424e-010 1.2921e-014 -6.02303e-014
Spine  -2.14821 -2.06762 -6.01813
Spine1  7.75889 -1.51507 -4.89274
HEad  1.18755 -54.6235 10.132
LeftShoulder1  0.914474 0.0231856 -21.7521
LeftArm  -3.64138 18.4436 -42.1169
LeftForeArm  53.4935 3.96581 -11.5444
LeftHand  -42.7534 -45.0013 82.4139
RightShoulder  1.72148 2.74794 22.2183
RightArm  -42.4932 25.3882 43.3198
RightForeArm  21.351 -1.36435 -6.76892
RightHand  0.0865568 -5.73591 -29.0074
LeftUpLeg  -21.5918 -3.68042 -8.98288
LeftLeg  22.3122 7.51287 3.72555
LeftFoot  -4.05304 0.0433291 -0.29708
LeftToes  -1.2485e-010 1.20979e-011 -1.0929e-011
1575
root  26.0374 38.6326 38.6296 -58.4693 -83.4654 60.7669
RightUpLeg  -18.9623 2.6684 -8.31559
RightLeg  71.5805 1.11135 2.88161
RightFoot  -0.615487 -0.423564 4.46401
RightToes  2.96424e-010 1.2921e-014 -6.02303e-014
Spine  -2.06479 -2.46712 -6.67426
Spine1  7.63643 -2.19332 -3.90293
HEad  1.38882 -54.2966 9.3686
LeftShoulder1  1.00772 -0.336955 -21.5468
LeftArm  -3.0707 18.2884 -42.9272
LeftForeArm  50.6998 -0.392251 -11.6622
LeftHand  -38.1096 -45.3655 74.9597
RightShoulder  1.60912 2.2242 22.9053
RightArm  -40.8232 19.6601 42.0852
RightForeArm  24.1602 -4.71664 -6.41078
RightHand  -0.00548467 -5.37128 -29.7163
LeftUpLeg  -18.2394 -2.71777 -8.92563
LeftLeg  21.6909 7.29526 3.57106
LeftFoot  -6.10488 0.0299081 0.149325
LeftToes  -1.2485e-010 1.20979e-011 -1.0929e-011
1576
root  24.5237 38.7656 38.8329 -58.5646 -83.7539 60.6227
RightUpLeg  -22.6108 1.84931 -7.74536
RightLeg  68.5779 0.84788 1.67297
RightFoot  -4.07654 -0.274725 3.88786
RightToes  2.96424e-010 1.2921e-014 -6.02303e-014
Spine  -1.65572 -2.93863 -7.89947
Spine1  7.10275 -2.99938 -2.5869
HEad  0.98553 -54.3591 9.35777
LeftShoulder1  1.09337 -0.67977 -21.3031
LeftArm  0.161192 17.755 -43.4438
LeftForeArm  46.3037 -5.62211 -11.5979
LeftHand  -32.6011 -44.3959 67.1158
RightShoulder  1.44876 1.55967 23.5994
RightArm  -39.8948 13.1156 40.0462
RightForeArm  27.1168 -4.83204 -5.61591
RightHand  0.152197 -5.92371 -31.9721
LeftUpLeg  -15.2684 -1.73726 -9.05484
LeftLeg  21.4533 6.71342 3.33935
LeftFoot  -8.33316 0.040341 0.371464
LeftToes  -1.2485e-010 1.20979e-011 -1.0929e-011
1577
root  23.0217 38.8536 39.0152 -51.9088 -83.6929 53.828
RightUpLeg  -25.3252 -0.0108994 -6.81672
RightLeg  62.7805 0.512463 0.545772
RightFoot  -7.1991 -0.132596 2.31361
RightToes  2.96424e-010 1.2921e-014 -6.02303e-014
Spine  -1.379 -3.68383 -8.74615
Spine1  6.72665 -3.98326 -1.23049
HEad  -0.28996 -54.8251 10.3656
LeftShoulder1  1.1696 -1.002 -21.0033
LeftArm  7.75671 16.6065 -43.6874
LeftForeArm  38.189 -11.8671 -10.04
LeftHand  -27.0156 -42.3935 59.3837
RightShoulder  1.20836 0.62914 24.5366
RightArm  -40.1562 6.25063 36.9383
RightForeArm  31.9567 -4.78913 -5.53239
RightHand  0.0893249 -5.68192 -33.3666
LeftUpLeg  -12.3549 -0.618911 -8.9117
LeftLeg  20.999 5.31896 2.64924
LeftFoot  -10.394 0.0533101 1.10581
LeftToes  -1.2485e-010 1.20979e-011 -1.0929e-011
1578
root  21.5397 38.8855 39.1826 -45.1639 -83.3658 47.1257
RightUpLeg  -27.4125 -2.36078 -5.83033
RightLeg  54.9624 -0.49477 -1.1582
RightFoot  -9.0472 -0.103451 2.10022
RightToes  2.96424e-010 1.2921e-014 -6.02303e-014
Spine  -1.31711 -4.46239 -9.3585
Spine1  6.53105 -4.88755 -0.0380555
HEad  -2.21072 -55.4495 11.8408
LeftShoulder1  1.27267 -1.42869 -20.7172
LeftArm  15.6117 15.0589 -43.6307
LeftForeArm  29.7107 -17.293 -7.06293
LeftHand  -22.2941 -39.9331 52.7233
RightShoulder  0.953261 -0.244408 24.9211
RightArm  -39.5627 -0.60497 33.1605
RightForeArm  35.7695 -4.80828 -5.0938
RightHand  0.0200651 -5.44025 -34.7262
LeftUpLeg  -9.56822 -0.17861 -8.84583
LeftLeg  20.4107 4.35067 2.33501
LeftFoot  -12.3667 0.0870244 1.42545
LeftToes  -1.2485e-010 1.20979e-011 -1.0929e-011
1579
root  20.0994 38.9106 39.3288 -40.992 -83.406 43.0701
RightUpLeg  -28.943 -4.2449 -4.22214
RightLeg  45.5138 -2.96647 -3.53291
RightFoot  -7.8764 -0.105004 1.70365
RightToes  2.96424e-010 1.2921e-014 -6.02303e-014
Spine  -1.36074 -5.10692 -9.24778
Spine1  6.40094 -5.54295 0.920419
HEad  -3.91522 -55.7956 13.1721
LeftShoulder1  1.35613 -1.81399 -20.2986
LeftArm  19.0433 13.3985 -43.1861
LeftForeArm  25.09 -20.9639 -4.63482
LeftHand  -18.763 -37.9865 47.1066
RightShoulder  0.774416 -0.797709 24.5766
RightArm  -36.9466 -7.49674 29.2836
RightForeArm  37.579 -5.04016 -3.59752
RightHand  -0.162932 -4.84969 -35.0024
LeftUpLeg  -6.7627 0.943215 -8.24496
LeftLeg  19.4783 3.12243 1.48018
LeftFoot  -14.1709 0.132241 1.90905
LeftToes  -1.2485e-010 1.20979e-011 -1.0929e-011
